<mxfile host="app.diagrams.net" modified="2023-09-28T06:23:07.722Z" agent="Mozilla/5.0 (Windows NT 10.0; Win64; x64) AppleWebKit/537.36 (KHTML, like Gecko) Chrome/117.0.0.0 Safari/537.36" etag="Nb88cZZjwt2GTcbdsaen" version="21.7.5" type="device">
  <diagram name="favicon" id="ug8e-kdTaYeK0ajOCiBF">
    <mxGraphModel dx="2284" dy="1858" grid="1" gridSize="10" guides="1" tooltips="1" connect="1" arrows="1" fold="1" page="1" pageScale="1" pageWidth="850" pageHeight="1100" math="0" shadow="0">
      <root>
        <mxCell id="fYxX6JHl0ockhx_LLRCY-0" />
        <mxCell id="fYxX6JHl0ockhx_LLRCY-1" parent="fYxX6JHl0ockhx_LLRCY-0" />
        <mxCell id="fYxX6JHl0ockhx_LLRCY-3" value="" style="sketch=0;aspect=fixed;pointerEvents=1;shadow=0;dashed=0;html=1;strokeColor=none;labelPosition=center;verticalLabelPosition=bottom;verticalAlign=top;align=center;fillColor=#0378bc;shape=mxgraph.mscae.enterprise.folder;fontFamily=Helvetica;fontSize=12;fontColor=default;container=0;" parent="fYxX6JHl0ockhx_LLRCY-1" vertex="1">
          <mxGeometry x="-840" y="-1090" width="127.9" height="110" as="geometry" />
        </mxCell>
        <mxCell id="fYxX6JHl0ockhx_LLRCY-4" value="" style="verticalLabelPosition=bottom;verticalAlign=top;html=1;shape=mxgraph.infographic.shadedCube;isoAngle=15;fillColor=#C05602;strokeColor=none;pointerEvents=0;fontFamily=Helvetica;fontSize=12;fontColor=#FFB366;" parent="fYxX6JHl0ockhx_LLRCY-1" vertex="1">
          <mxGeometry x="-786" y="-1054" width="57" height="57" as="geometry" />
        </mxCell>
      </root>
    </mxGraphModel>
  </diagram>
</mxfile>
